Marilyn Monroe : The Asphalt Jungle (1950)       
  
 
Verenigde Staten
Film-Noir / Misdaad
112 minuten

geregisseerd door John Huston
met Sterling Hayden, Louis Calhern en Jean Hagen

De onlangs op borgtocht vrijgelaten topcrimineel Erwin ‘Doc’ Riedenschneider verzamelt, gefinancierd door de corrupte advocaat Alonzo D. Emmerich, een aantal boeven voor een zorgvuldig geplande grote juweelroof in Cincinnati. In Doc’s bende zitten de aan lager wal geraakte onverschrokken crimimeel Dix Handley, de café-eigenaar en gokker Gus Minissi, de professionele safekraker Louis Ciavelli en de bookmaker Cobbi, die als koerier fungeert tussen Emmerich en Doc. De overval is succesvol, maar een alerte nachtwaker schiet Ciavelli tijdens zijn vlucht neer. Een corrupte agent weet Cobbi te martelen en zo meer te weten te komen over de overvallers. Daarnaast kan Emmerich de boevenbende niet uitbetalen, omdat hij wordt gechanteerd door zijn voormalige zakenpartner Bob Brannom.


English

Doc Erwin Riedenschneider has just been released from prison and immediately seeks out financial backing for a heist which he has been plotting, the robbery of a jewellery store. He puts together a group of men consisting of Dix Handley, a tough guy, Gus, a bar owner and Louis Ciavelli, a family man. The robbery is a success and Dix and Doc take the jewels to their buyer, Alonzo 'Lon' Emmerich. Unfortunately, Emmerich does not have the money for them; he was hoping to be able to coerce the group into giving him the jewels under the false pretence of fencing them. He would then be able to sell them himself with the help of his business partner, Bob Brannom... 


Spotinformatie 
Categorie : Beeld 
Formaat : DVD5 
Bron : Retail
Cover : Yes
Audio : English
 
Ondertitels : Nederlands (instelbaar)
 Met dank aan de vertaler, goed werk !
 
Genre : Misdaad
Film Noir

Video
ID                               : 224 (0xE0)
Format                           : MPEG Video
Format version                   : Version 2
Format profile                   : Main@Main
Format settings, Matrix          : Default
Duration                         : 28mn 31s
Bit rate mode                    : Variable
Bit rate                         : 4 627 Kbps
Nominal bit rate                 : 8 000 Kbps
Width                            : 720 pixels
Height                           : 576 pixels
Display aspect ratio             : 4/3
Frame rate                       : 25.000 fps
Standard                         : PAL
Colorimetry                      : 4:2:0
Scan type                        : Interlaced
Scan order                       : Top Field First
Bits/(Pixel*Frame)               : 0.446
Stream size                      : 944 MiB (92%)

Audio
ID                               : 128 (0x80)
Format                           : AC-3
Format/Info                      : Audio Coding 3
Duration                         : 28mn 31s
Bit rate mode                    : Constant
Bit rate                         : 192 Kbps
Channel(s)                       : 2 channels
Channel positions                : L R
Sampling rate                    : 48.0 KHz
Video delay                      : -392ms
Stream size                      : 39.2 MiB (4%)



Weblink :  http://www.moviemeter.nl/film/2645 
Weblink :  http://www.imdb.com/title/tt0042208 

*****************************************

Brought to you by 
Pioen

2Lions Team

meer zien??
Kom dan eens kijken op ons forum 




2Lions the site to be for all your Dutch MOVIES and more

******************************************


DON T HIT AND RUN Niet gelijk afhaken 

Don`t quit after you finished the download, but keep seeding


There are fake torrents from uploaders who use our team name.
Those are not ours, or members from our team.
We 2Lions-Team are not responsible for the fake posts on our name

Wij 2Lions-Team zijn niet verantwoordelijk voor die zieke FAKE posten die op onze naam worden gedaan
 


 
 
 
